<?xml version="1.0" standalone="no"?>
<!DOCTYPE svg PUBLIC "-//W3C//DTD SVG 20010904//EN"
 "http://www.w3.org/TR/2001/REC-SVG-20010904/DTD/svg10.dtd">
<svg version="1.0" xmlns="http://www.w3.org/2000/svg"
 width="516.000000pt" height="295.000000pt" viewBox="0 0 516.000000 295.000000"
 preserveAspectRatio="xMidYMid meet">

<g transform="translate(0.000000,295.000000) scale(0.100000,-0.100000)"
fill="#000000" stroke="none">
<path d="M4095 2643 c-54 -14 -55 -19 -55 -255 l0 -218 -201 0 c-119 0 -208
-4 -220 -10 -12 -7 -19 -21 -19 -40 l0 -30 220 0 220 0 0 -230 c0 -218 1 -230
20 -240 25 -14 100 3 117 26 10 13 13 74 13 231 l0 213 204 0 c200 0 205 0
220 22 9 12 16 30 16 40 0 17 -16 18 -220 18 l-220 0 -2 238 -3 237 -35 2
c-19 0 -44 -1 -55 -4z"/>
<path d="M1419 2460 c-19 -10 -40 -25 -46 -32 -6 -7 -30 -71 -53 -143 -99
-305 -205 -557 -518 -1242 -150 -327 -179 -370 -277 -420 -64 -32 -95 -61 -95
-89 0 -41 23 -48 103 -33 47 9 153 13 306 14 204 0 235 2 244 16 18 28 2 44
-93 94 -77 41 -95 55 -107 84 -22 51 -12 89 74 303 l77 191 65 -7 c37 -3 202
-6 368 -6 l303 0 14 -33 c125 -288 176 -414 176 -436 0 -36 -31 -64 -122 -110
-60 -31 -74 -43 -76 -65 -5 -41 24 -46 209 -34 151 9 384 1 495 -19 29 -4 33
-2 39 26 3 17 4 35 0 41 -3 5 -44 28 -89 50 -91 43 -131 81 -171 161 -62 122
-455 1016 -632 1439 -52 124 -101 235 -109 248 -17 27 -37 27 -85 2z m14 -511
c35 -68 277 -618 277 -629 0 -15 -202 -22 -406 -15 -112 4 -206 10 -208 14 -3
5 228 571 269 659 8 19 21 32 28 30 6 -2 25 -29 40 -59z"/>
<path d="M3045 2326 c-42 -18 -92 -78 -105 -126 -26 -96 40 -180 140 -180 160
0 237 247 95 306 -42 17 -90 17 -130 0z"/>
<path d="M3035 1619 c-44 -27 -116 -63 -160 -80 -137 -52 -154 -98 -52 -143
63 -27 113 -82 124 -133 4 -21 8 -155 8 -298 0 -310 -3 -322 -93 -366 -30 -14
-58 -32 -63 -40 -10 -19 -1 -56 16 -63 7 -2 77 0 156 5 79 5 206 8 283 7 152
-3 166 2 152 55 -4 19 -18 29 -53 42 -98 34 -132 54 -150 87 -17 30 -18 69
-18 489 0 487 0 490 -49 489 -11 -1 -57 -23 -101 -51z"/>
</g>
</svg>
