<?xml version="1.0" encoding="UTF-8"?>
<!DOCTYPE svg PUBLIC "-//W3C//DTD SVG 1.1//EN" "http://www.w3.org/Graphics/SVG/1.1/DTD/svg11.dtd">
<svg xmlns="http://www.w3.org/2000/svg" version="1.1" width="516px" height="295px" style="shape-rendering:geometricPrecision; text-rendering:geometricPrecision; image-rendering:optimizeQuality; fill-rule:evenodd; clip-rule:evenodd" xmlns:xlink="http://www.w3.org/1999/xlink">
<g><path style="opacity:1" fill="#fefefe" d="M -0.5,-0.5 C 171.5,-0.5 343.5,-0.5 515.5,-0.5C 515.5,97.8333 515.5,196.167 515.5,294.5C 343.5,294.5 171.5,294.5 -0.5,294.5C -0.5,196.167 -0.5,97.8333 -0.5,-0.5 Z"/></g>
<g><path style="opacity:1" fill="#020202" d="M 456.5,85.5 C 443.5,85.5 430.5,85.5 417.5,85.5C 417.5,99.8333 417.5,114.167 417.5,128.5C 417.426,130.411 416.426,131.578 414.5,132C 410.909,132.789 407.409,132.622 404,131.5C 403.5,116.17 403.333,100.837 403.5,85.5C 388.833,85.5 374.167,85.5 359.5,85.5C 359.338,83.4727 359.505,81.4727 360,79.5C 360.75,78.8742 361.584,78.3742 362.5,78C 376.163,77.5001 389.829,77.3334 403.5,77.5C 403.333,62.8295 403.5,48.1629 404,33.5C 408.001,29.5344 412.668,28.5344 418,30.5C 418.5,46.1631 418.667,61.8298 418.5,77.5C 433.167,77.5 447.833,77.5 462.5,77.5C 462.899,82.0557 460.899,84.7224 456.5,85.5 Z"/></g>
<g><path style="opacity:1" fill="#030303" d="M 144.5,46.5 C 145.873,46.3433 147.207,46.51 148.5,47C 163.387,79.9455 177.887,113.112 192,146.5C 203.393,172.286 215.059,197.952 227,223.5C 232.936,229.889 240.102,234.389 248.5,237C 249.804,237.804 250.471,238.971 250.5,240.5C 249.954,242.135 249.62,243.801 249.5,245.5C 227.224,242.035 204.89,241.702 182.5,244.5C 176.999,245.034 174.833,242.701 176,237.5C 180.724,234.888 185.557,232.388 190.5,230C 195.712,226.224 196.879,221.39 194,215.5C 188.608,202.383 182.942,189.383 177,176.5C 154.062,175.781 131.062,175.114 108,174.5C 104.561,174.178 102.228,175.512 101,178.5C 96.6667,189.167 92.3333,199.833 88,210.5C 85.7619,216.015 86.0952,221.349 89,226.5C 95.02,230.181 101.187,233.681 107.5,237C 108.935,239.267 108.602,241.267 106.5,243C 97.6669,243.323 88.8336,243.156 80,242.5C 68.9121,242.649 57.9121,243.649 47,245.5C 42.9177,244.841 41.5844,242.508 43,238.5C 46.9096,234.792 51.4096,231.958 56.5,230C 60.7523,226.419 64.2523,222.252 67,217.5C 87.0406,175.754 105.707,133.421 123,90.5C 127.399,78.6366 131.399,66.6366 135,54.5C 137.325,50.7652 140.491,48.0985 144.5,46.5 Z"/></g>
<g><path style="opacity:1" fill="#060606" d="M 305.5,60.5 C 323.332,60.8173 328.499,69.1507 321,85.5C 314.735,92.9399 307.235,94.4399 298.5,90C 292.675,84.8593 291.175,78.6927 294,71.5C 297.07,66.9273 300.904,63.2607 305.5,60.5 Z"/></g>
<g><path style="opacity:1" fill="#fafafa" d="M 137.5,93.5 C 139.017,93.5106 140.184,94.1772 141,95.5C 151.677,117.849 161.51,140.516 170.5,163.5C 149.794,165.092 129.128,164.758 108.5,162.5C 117.924,139.329 127.59,116.329 137.5,93.5 Z"/></g>
<g><path style="opacity:1" fill="#595959" d="M 456.5,85.5 C 444.011,86.4954 431.344,86.8287 418.5,86.5C 418.829,100.677 418.496,114.677 417.5,128.5C 417.5,114.167 417.5,99.8333 417.5,85.5C 430.5,85.5 443.5,85.5 456.5,85.5 Z"/></g>
<g><path style="opacity:1" fill="#020202" d="M 310.5,127.5 C 313.044,127.104 315.211,127.771 317,129.5C 317.038,160.54 317.705,191.54 319,222.5C 319.516,225.034 320.683,227.2 322.5,229C 327.545,231.767 332.878,233.934 338.5,235.5C 342.049,242.642 339.715,245.642 331.5,244.5C 314.169,243.373 296.836,243.373 279.5,244.5C 279.337,242.143 279.503,239.81 280,237.5C 282.978,235.618 286.145,234.118 289.5,233C 291.894,231.048 293.394,228.548 294,225.5C 295.582,207.539 295.916,189.539 295,171.5C 293.324,161.546 287.491,155.379 277.5,153C 274.33,148.546 275.33,145.213 280.5,143C 291.566,139.635 301.566,134.469 310.5,127.5 Z"/></g>
</svg>
