<?xml version="1.0" encoding="UTF-8"?>
<!DOCTYPE svg PUBLIC "-//W3C//DTD SVG 1.1//EN" "http://www.w3.org/Graphics/SVG/1.1/DTD/svg11.dtd">
<svg xmlns="http://www.w3.org/2000/svg" version="1.1" width="525px" height="346px" style="shape-rendering:geometricPrecision; text-rendering:geometricPrecision; image-rendering:optimizeQuality; fill-rule:evenodd; clip-rule:evenodd" xmlns:xlink="http://www.w3.org/1999/xlink">
<g><path style="opacity:1" fill="#262626" d="M -0.5,-0.5 C 174.5,-0.5 349.5,-0.5 524.5,-0.5C 524.5,114.833 524.5,230.167 524.5,345.5C 349.5,345.5 174.5,345.5 -0.5,345.5C -0.5,230.167 -0.5,114.833 -0.5,-0.5 Z"/></g>
<g><path style="opacity:1" fill="#ccdbf2" d="M 459.5,125.5 C 446.5,125.5 433.5,125.5 420.5,125.5C 420.5,139.833 420.5,154.167 420.5,168.5C 420.426,170.411 419.426,171.578 417.5,172C 413.909,172.789 410.409,172.622 407,171.5C 406.5,156.17 406.333,140.837 406.5,125.5C 391.833,125.5 377.167,125.5 362.5,125.5C 362.338,123.473 362.505,121.473 363,119.5C 363.75,118.874 364.584,118.374 365.5,118C 379.163,117.5 392.829,117.333 406.5,117.5C 406.333,102.83 406.5,88.1629 407,73.5C 409.229,70.5542 412.229,69.2208 416,69.5C 417.764,69.5445 419.431,69.8778 421,70.5C 421.5,86.1631 421.667,101.83 421.5,117.5C 436.167,117.5 450.833,117.5 465.5,117.5C 466.119,122.206 464.119,124.873 459.5,125.5 Z"/></g>
<g><path style="opacity:1" fill="#cbdaf0" d="M 147.5,86.5 C 149.722,86.178 151.556,86.8446 153,88.5C 177.509,146.519 202.842,204.185 229,261.5C 230.793,264.295 232.96,266.795 235.5,269C 241.285,272.308 247.118,275.475 253,278.5C 253.334,280.847 253.167,283.181 252.5,285.5C 230.907,282.051 209.24,281.717 187.5,284.5C 184.705,284.547 182.039,284.047 179.5,283C 178.424,281.274 178.257,279.441 179,277.5C 184.149,274.669 189.315,271.836 194.5,269C 197.148,267.367 198.481,265.033 198.5,262C 193.15,246.461 186.817,231.294 179.5,216.5C 155.31,215.819 131.143,215.153 107,214.5C 105.523,215.444 104.523,216.777 104,218.5C 98.7314,231.198 93.8981,244.031 89.5,257C 89.2829,262.184 91.2829,266.184 95.5,269C 100.907,271.452 106.074,274.286 111,277.5C 111.825,279.701 111.325,281.534 109.5,283C 99.3301,283.43 89.1635,283.263 79,282.5C 69.2501,282.677 59.5834,283.677 50,285.5C 45.5995,284.451 44.4328,281.784 46.5,277.5C 51.0002,274.415 55.6669,271.582 60.5,269C 65.1043,264.397 68.9376,259.23 72,253.5C 87.6078,219.285 102.941,184.951 118,150.5C 125.455,132.137 132.121,113.47 138,94.5C 140.362,90.7553 143.528,88.0886 147.5,86.5 Z"/></g>
<g><path style="opacity:1" fill="#cad9ef" d="M 308.5,100.5 C 326.861,100.547 332.027,108.88 324,125.5C 315.66,134.464 306.993,134.797 298,126.5C 295.211,121.652 294.878,116.652 297,111.5C 300.07,106.927 303.904,103.261 308.5,100.5 Z"/></g>
<g><path style="opacity:1" fill="#282828" d="M 140.5,133.5 C 142.017,133.511 143.184,134.177 144,135.5C 154.523,157.914 164.356,180.581 173.5,203.5C 152.798,205.071 132.132,204.737 111.5,202.5C 120.987,179.356 130.654,156.356 140.5,133.5 Z"/></g>
<g><path style="opacity:1" fill="#939cab" d="M 459.5,125.5 C 447.011,126.495 434.344,126.829 421.5,126.5C 421.829,140.677 421.496,154.677 420.5,168.5C 420.5,154.167 420.5,139.833 420.5,125.5C 433.5,125.5 446.5,125.5 459.5,125.5 Z"/></g>
<g><path style="opacity:1" fill="#cbd9f0" d="M 313.5,167.5 C 316.044,167.104 318.211,167.771 320,169.5C 320.038,200.54 320.705,231.54 322,262.5C 322.516,265.034 323.683,267.2 325.5,269C 331.005,271.724 336.672,274.057 342.5,276C 344.653,283.02 341.986,285.854 334.5,284.5C 317.154,283.74 299.821,283.406 282.5,283.5C 281.515,281.902 281.349,280.235 282,278.5C 285.462,275.676 289.295,273.51 293.5,272C 295.604,269.958 296.771,267.458 297,264.5C 297.667,245.833 297.667,227.167 297,208.5C 296.492,203.988 294.325,200.488 290.5,198C 285.952,196.142 281.785,193.642 278,190.5C 277.333,189.167 277.333,187.833 278,186.5C 285.193,182.431 292.693,178.931 300.5,176C 305.24,173.64 309.574,170.807 313.5,167.5 Z"/></g>
</svg>
