<svg fill="#5F6F65" width="60px" height="60px" viewBox="-11.2 -11.2 50.40 50.40" xmlns="http://www.w3.org/2000/svg" stroke="#5F6F65" transform="rotate(180)"><g id="SVGRepo_bgCarrier" stroke-width="0"><rect x="-11.2" y="-11.2" width="50.40" height="50.40" rx="25.2" fill="#C9DABF" strokewidth="0"></rect></g><g id="SVGRepo_tracerCarrier" stroke-linecap="round" stroke-linejoin="round"></g><g id="SVGRepo_iconCarrier"><path d="m5.216 11.998c0 1.44-1.168 2.608-2.608 2.608s-2.608-1.168-2.608-2.608 1.168-2.608 2.608-2.608 2.608 1.168 2.608 2.608z"></path><path d="m5.216 2.608c0 1.44-1.168 2.608-2.608 2.608s-2.608-1.168-2.608-2.608 1.168-2.608 2.608-2.608 2.608 1.168 2.608 2.608z"></path><path d="m5.216 21.389c0 1.44-1.168 2.608-2.608 2.608s-2.608-1.168-2.608-2.608 1.168-2.608 2.608-2.608 2.608 1.168 2.608 2.608z"></path><path d="m9.794 0h15.247c1.441 0 2.61 1.168 2.61 2.61s-1.168 2.61-2.61 2.61h-15.247c-1.441 0-2.61-1.168-2.61-2.61s1.168-2.61 2.61-2.61z"></path><path d="m9.794 9.39h15.247c1.441 0 2.61 1.168 2.61 2.61s-1.168 2.61-2.61 2.61h-15.247c-1.441 0-2.61-1.168-2.61-2.61s1.168-2.61 2.61-2.61z"></path><path d="m9.794 18.781h15.247c1.441 0 2.61 1.168 2.61 2.61s-1.168 2.61-2.61 2.61h-15.247c-1.441 0-2.61-1.168-2.61-2.61s1.168-2.61 2.61-2.61z"></path></g></svg>